<?xml version="1.0" encoding="UTF-8"?>
<svg id="Layer_1" data-name="Layer 1" xmlns="http://www.w3.org/2000/svg" viewBox="0 0 505.36 614.9">
  <defs>
    <style>
      .cls-1 {
        fill: #010101;
        fill-rule: evenodd;
      }
    </style>
  </defs>
  <path class="cls-1" d="M408.26,48.57c.89,3.1,4.73,5.37,8.16,9.01,2.63-4.39,5.92-7.43,6.07-10.62.33-6.81-.96-13.7-1.61-20.56-.76-8.24-1.55-16.46-2.49-26.4-14.1,1.35-18.7,4.53-17.56,15.16,1.2,11.29,4.31,22.44,7.44,33.41h0Z"/>
  <path class="cls-1" d="M381.39,72.18c.27.91,2.25,1.33,3.96,2.25,4.26-2.4,8.8-4.94,12.55-7.07-4.83-20.73-9.3-39.91-13.74-58.95-16.27,1.82-19.47,4.01-16.92,15.24,3.72,16.4,9.21,32.41,14.14,48.52h0Z"/>
  <path class="cls-1" d="M355.69,91.39c10.46-3.86,13.58-9.02,10.81-19.42-4.14-15.5-8.95-30.81-14.19-48.63-9.99,5.69-16.01,12.49-16.14,21.09-.24,16.71-.04,33.8,9.64,48.59,3.87-.59,7.07-.58,9.88-1.63h0Z"/>
  <path class="cls-1" d="M479.09,14.98c-14.03-10.89-29.39-6.74-43.04-12.44-4.55,13.66-4.85,25.2,1.51,38.01,19.06-2.54,27.05-17.32,41.53-25.56h0Z"/>
  <path class="cls-1" d="M285.97,612.81c.19.13.39.26.58.39.39.3.77.6,1.16.9-.23-.47-.37-1.02-.55-1.53-.4.08-.8.16-1.19.23h0Z"/>
  <path class="cls-1" d="M287.79,614.29c.16.29.59.41.91.6-.32-.25-.65-.51-.98-.76.03.05.05.1.08.16h0Z"/>
  <path class="cls-1" d="M443.9,54.66c-2.86,1.96-5.06,4.86-8.33,8.12,9.06,10.95,16.54,21.29,29.58,27.88,4.74-6.44,9.03-12.28,13.38-18.19-9.45-7.53-17.73-14.12-26.36-21.01-2.64.98-5.82,1.54-8.26,3.2h0Z"/>
  <path class="cls-1" d="M466.75,44.25c8.16,6.77,13.41,11.12,18.67,15.48,7.32-9.38,10.29-18.94,4.88-31.63-7.6,5.2-14.34,9.83-23.54,16.15Z"/>
  <g>
    <path class="cls-1" d="M224.14,209.93c-7.67,6.02-13.91,13.21-19.06,21.24l-25.74,78.51c-5,22.17-3.17,44.64-2.4,66.89.69,20.02,5.26,39.45,14.56,57.82,18.1,35.73,35.12,72.01,52.72,107.99,3.05,6.23,6.26,12.47,10.22,18.12,11.94,17.07,23.43,34.76,47.63,36.1,4.06.23,7.94,3.76,11.7,5.66,2.55-1.22,4.75-2.03,6.71-3.22,45.76-27.65,86.86-61.24,124.52-99,8.04-8.07,15.2-17.72,20.27-27.89,10.28-20.62,19.5-41.83,27.89-63.3,4.72-12.1,8.64-25.03,9.89-37.87,2.1-21.45,2.05-43.12,2.29-64.7.07-6.02.05-13.99-3.48-17.75-9.96-10.66-11.38-24.95-18.25-36.76-11.97-20.59-23.43-41.13-39.38-59.47-13.99-16.1-27-29.07-49.93-25.82-2.1.3-4.4-1.38-6.68-1.69-13.71-1.88-27.41-4.1-41.19-5.32-30.58-2.71-60.34-.52-85.28,20.16-12.28,10.18-24.46,20.45-37,30.31h0Z"/>
    <path class="cls-1" d="M262.5,596.22c-9.24-10.15-17.5-21.65-23.97-33.75-14.91-27.85-28.79-56.26-42.5-84.74-15.68-32.56-35.73-56.92-37.26-94.47-.86-21.11-2.87-41.53,0-62.2,0,0,9.85-70.81,33.3-92.55.31-1.24.6-2.53.91-3.85,1.32-5.66,8.25-6.36,11.57-11.27,3.86-5.72,8.61-10.87,13.21-16.06,4.44-4.99,9.19-9.74,14.32-15.13-4.06-2.47-7.1-3.51-8.99-5.58-15.14-16.47-27.67-13.59-46.04-24.66-2.56-1.53-14.34-2.01-17.3-2.26-26.42-2.26-50.58-6.67-75.22,4.59-27.23,12.44-38.76,37.42-51.31,61.81-15.92,30.92-29.16,61.07-31.89,96.06-2.43,30.92-2.4,61.34,8.06,91.32,13.65,39.08,36.63,72.8,58.73,107.11,2.46,3.83,6.1,6.93,9.35,10.22,24.9,25.21,55.73,40.85,87.91,54.31,7.09,2.95,14.64,5.16,21.16,9.07,15.35,9.2,31.78,15.3,48.99,19.69,5.96,1.53,12.01,2.95,17.68,5.24,10.69,4.31,21.5,5.81,32.76,3.7-8-5.38-17.17-9.68-23.47-16.61h0Z"/>
    <path class="cls-1" d="M323.86,64.08c-16.85,23.48-20.12,40.95-10.28,59.02,6.3-4.14,12.51-8.23,18.03-11.87-2.92-17.73-5.33-32.41-7.75-47.14h0Z"/>
    <path class="cls-1" d="M420.08,69.99c-10.27,3.21-18.03,7.28-23.57,14,8.24,19.39,24.38,29.49,39.67,42.58,6.7-8.37,12.74-15.92,19.03-23.79-11.2-13.28-23.53-23.08-35.13-32.78h0Z"/>
    <path class="cls-1" d="M364.12,108.46c6.67,6.62,12.82,13.47,19.72,19.47,13.64,11.87,14.74,11.71,33.37,1.36-10.72-10.98-21.4-21.92-33.81-34.65-8.01,1.61-16.23,2.99-19.28,13.82h0Z"/>
    <path class="cls-1" d="M348.46,112.87c-7.78,5.47-16.79,7.69-24.72,17.65,16.78,6.43,30.56,16.02,47.78,6.89-4.69-10.7-13.75-17.06-23.06-24.54h0Z"/>
    <path class="cls-1" d="M372.52,138.88c.17.25.82.23,1.24.31-.51-.38-1.03-.77-1.54-1.15.06.3.15.59.3.84Z"/>
    <path class="cls-1" d="M371.53,137.41l.08.17c.21.16.41.31.62.46-.06-.3-.11-.62-.18-.92-.17.1-.35.19-.52.28h0Z"/>
  </g>
</svg>